<svg width="419" height="660" viewBox="0 0 419 660" fill="none" xmlns="http://www.w3.org/2000/svg">
<g filter="url(#filter0_d_0_4933)">
<path fill-rule="evenodd" clip-rule="evenodd" d="M88.776 55.5695H280.009C298.35 55.5695 313.217 69.8048 313.217 87.365V522.635C313.217 540.195 298.35 554.431 280.009 554.431H88.776C70.4357 554.431 55.5679 540.195 55.5679 522.635V87.365C55.5679 69.8048 70.4357 55.5695 88.776 55.5695Z" fill="#213648"/>
</g>
<path opacity="0.595562" fill-rule="evenodd" clip-rule="evenodd" d="M280.749 55H87.9226C78.92 55.549 70.6174 59.6569 63.0146 67.3239C67.9041 63.0559 76.6249 57.3446 88.1546 57.3446C88.1546 57.3446 272.83 57.3446 280.517 57.3446C292.046 57.3446 300.767 63.0559 305.656 67.3239C298.054 59.6569 289.751 55.549 280.749 55Z" fill="url(#paint0_linear_0_4933)" fill-opacity="0.65"/>
<path opacity="0.75" fill-rule="evenodd" clip-rule="evenodd" d="M307.999 517.671V89.9818C307.999 78.5065 303.782 74.2644 301.266 71.5405C298.75 68.8165 298.643 67.4272 302.258 69.4838C305.873 71.5405 313.103 77.5305 313.103 89.9818V517.671C313.103 530.122 305.873 536.112 302.258 538.169C298.643 540.225 298.75 538.836 301.266 536.112C303.782 533.388 307.999 529.146 307.999 517.671Z" fill="url(#paint1_linear_0_4933)"/>
<path opacity="0.75" fill-rule="evenodd" clip-rule="evenodd" d="M60.672 517.671V89.9818C60.672 78.5065 64.8894 74.2644 67.4053 71.5405C69.9212 68.8165 70.0283 67.4272 66.4134 69.4838C62.7984 71.5405 55.568 77.5305 55.568 89.9818V517.671C55.568 530.122 62.7984 536.112 66.4134 538.169C70.0283 540.225 69.9212 538.836 67.4053 536.112C64.8894 533.388 60.672 529.146 60.672 517.671Z" fill="url(#paint2_linear_0_4933)"/>
<path fill-rule="evenodd" clip-rule="evenodd" d="M53 158.556C53 157.452 53.8954 156.556 55 156.556H55.9645C57.0691 156.556 57.9645 157.452 57.9645 158.556V218.907C57.9645 220.012 57.0691 220.907 55.9645 220.907H55C53.8954 220.907 53 220.012 53 218.907V158.556Z" fill="#2E423C"/>
<path fill-rule="evenodd" clip-rule="evenodd" d="M310.535 211.043C310.535 209.939 311.431 209.043 312.535 209.043H313.5C314.605 209.043 315.5 209.939 315.5 211.043V253.993C315.5 255.098 314.605 255.993 313.5 255.993H312.535C311.431 255.993 310.535 255.098 310.535 253.993V211.043Z" fill="#2E423C"/>
<path fill-rule="evenodd" clip-rule="evenodd" d="M161.676 67.4445L87.2698 67.4445C76.1653 67.4445 68.0742 75.0078 68.0742 84.8859V507.276C68.0742 520.156 80.5765 531.568 94.7134 531.568H274.046C287.664 531.568 300.686 520.067 300.686 507.276V86.0277C300.686 74.188 291.896 67.5149 281.49 67.4445L205.904 67.4445C205.618 67.4914 200.425 69.6262 198.231 75.0078C196.036 80.3893 191.621 84.6793 186.787 84.6793H181.172C178.874 84.6793 172.824 82.4496 169.76 75.0078C166.697 67.5659 161.963 67.4914 161.676 67.4445Z" fill="#36536B"/>
<mask id="mask0_0_4933" style="mask-type:alpha" maskUnits="userSpaceOnUse" x="68" y="67" width="233" height="465">
<path fill-rule="evenodd" clip-rule="evenodd" d="M161.676 67.4445L87.2698 67.4445C76.1653 67.4445 68.0742 75.0078 68.0742 84.8859V507.276C68.0742 520.156 80.5765 531.568 94.7134 531.568H274.046C287.664 531.568 300.686 520.067 300.686 507.276V86.0277C300.686 74.188 291.896 67.5149 281.49 67.4445L205.904 67.4445C205.618 67.4914 200.425 69.6262 198.231 75.0078C196.036 80.3893 191.621 84.6793 186.787 84.6793H181.172C178.874 84.6793 172.824 82.4496 169.76 75.0078C166.697 67.5659 161.963 67.4914 161.676 67.4445Z" fill="white"/>
</mask>
<g mask="url(#mask0_0_4933)">
</g>
<g filter="url(#filter1_d_0_4933)">
<rect x="96" y="197" width="176" height="191" rx="5" fill="#FBFCFE"/>
</g>
<path d="M129.604 315V305.601H132.782C133.454 305.601 134.052 305.714 134.576 305.939C135.101 306.164 135.512 306.498 135.811 306.94C136.115 307.382 136.266 307.926 136.266 308.571C136.266 309.195 136.125 309.728 135.844 310.17C135.566 310.612 135.179 310.948 134.68 311.178C134.182 311.408 133.603 311.522 132.945 311.522H130.839V315H129.604ZM130.832 310.508H132.919C133.564 310.508 134.089 310.329 134.492 309.969C134.895 309.609 135.096 309.12 135.096 308.5C135.096 307.876 134.888 307.404 134.472 307.083C134.056 306.762 133.519 306.602 132.86 306.602H130.832V310.508ZM139.266 315.13C138.833 315.13 138.449 315.054 138.116 314.902C137.782 314.746 137.52 314.523 137.329 314.233C137.143 313.943 137.05 313.592 137.05 313.18C137.05 312.435 137.31 311.88 137.83 311.516C138.35 311.152 139.184 310.957 140.332 310.931L141.535 310.898V310.372C141.535 309.96 141.411 309.635 141.164 309.397C140.917 309.154 140.534 309.033 140.014 309.033C139.628 309.037 139.288 309.128 138.993 309.306C138.703 309.484 138.514 309.774 138.428 310.177H137.368C137.394 309.739 137.518 309.371 137.739 309.072C137.96 308.769 138.267 308.539 138.662 308.383C139.06 308.227 139.531 308.149 140.072 308.149C140.657 308.149 141.143 308.231 141.528 308.396C141.918 308.561 142.209 308.803 142.399 309.124C142.594 309.445 142.692 309.839 142.692 310.307V315H141.665L141.58 313.739C141.32 314.263 140.989 314.627 140.586 314.831C140.187 315.03 139.747 315.13 139.266 315.13ZM139.63 314.265C139.856 314.265 140.079 314.224 140.3 314.142C140.525 314.06 140.731 313.949 140.917 313.81C141.104 313.667 141.251 313.509 141.359 313.336C141.472 313.158 141.53 312.976 141.535 312.79V311.639L140.534 311.659C140.022 311.668 139.593 311.72 139.247 311.815C138.904 311.91 138.647 312.06 138.473 312.263C138.304 312.467 138.22 312.734 138.22 313.063C138.22 313.44 138.35 313.735 138.61 313.947C138.874 314.159 139.214 314.265 139.63 314.265ZM145.092 317.145C144.698 317.145 144.427 317.117 144.28 317.061C144.132 317.004 144.059 316.976 144.059 316.976V316.196L144.741 316.209C144.993 316.218 145.201 316.2 145.365 316.157C145.53 316.114 145.662 316.055 145.762 315.982C145.861 315.908 145.937 315.826 145.989 315.735C146.046 315.644 146.091 315.557 146.126 315.475L146.36 314.837L143.734 308.279H144.949L146.932 313.466L148.901 308.279H150.078L147.244 315.507C147.07 315.932 146.875 316.263 146.659 316.502C146.446 316.74 146.208 316.907 145.944 317.002C145.684 317.097 145.4 317.145 145.092 317.145ZM151.261 315V308.279H152.418V309.254C152.604 308.959 152.86 308.701 153.185 308.48C153.51 308.259 153.932 308.149 154.452 308.149C154.695 308.149 154.942 308.19 155.193 308.272C155.449 308.355 155.683 308.478 155.895 308.643C156.108 308.808 156.272 309.009 156.389 309.247C156.597 308.918 156.879 308.654 157.234 308.454C157.59 308.251 157.991 308.149 158.437 308.149C158.671 308.149 158.916 308.186 159.171 308.259C159.427 308.329 159.663 308.454 159.88 308.636C160.101 308.814 160.281 309.063 160.419 309.384C160.558 309.7 160.627 310.108 160.627 310.606V315H159.418V310.723C159.418 310.316 159.353 310.001 159.223 309.78C159.093 309.555 158.922 309.397 158.71 309.306C158.502 309.215 158.279 309.169 158.04 309.169C157.832 309.169 157.611 309.211 157.377 309.293C157.143 309.375 156.944 309.514 156.779 309.709C156.615 309.904 156.532 310.17 156.532 310.508V315H155.336V310.372C155.336 310.108 155.265 309.887 155.122 309.709C154.983 309.531 154.808 309.397 154.595 309.306C154.387 309.215 154.179 309.169 153.971 309.169C153.742 309.169 153.51 309.215 153.276 309.306C153.046 309.397 152.851 309.542 152.691 309.741C152.535 309.936 152.457 310.192 152.457 310.508V315H151.261ZM163.267 311.919C163.267 312.344 163.336 312.729 163.475 313.076C163.618 313.418 163.832 313.691 164.118 313.895C164.409 314.099 164.771 314.2 165.204 314.2C165.633 314.2 166.001 314.101 166.309 313.901C166.621 313.702 166.82 313.414 166.907 313.037H168.044C167.962 313.492 167.78 313.875 167.498 314.188C167.217 314.499 166.877 314.736 166.478 314.896C166.079 315.052 165.663 315.13 165.23 315.13C164.602 315.13 164.049 314.994 163.572 314.72C163.096 314.447 162.723 314.055 162.454 313.544C162.186 313.033 162.051 312.419 162.051 311.704C162.051 310.998 162.173 310.378 162.415 309.845C162.658 309.312 163.009 308.896 163.468 308.597C163.932 308.298 164.489 308.149 165.139 308.149C165.772 308.149 166.307 308.285 166.744 308.558C167.182 308.831 167.514 309.217 167.739 309.715C167.969 310.209 168.083 310.797 168.083 311.477V311.919H163.267ZM163.273 311.106H166.926C166.926 310.721 166.861 310.374 166.731 310.066C166.601 309.754 166.402 309.51 166.133 309.332C165.869 309.15 165.535 309.059 165.132 309.059C164.712 309.059 164.363 309.161 164.086 309.364C163.813 309.564 163.607 309.822 163.468 310.138C163.334 310.45 163.269 310.773 163.273 311.106ZM169.634 315V308.279H170.798V309.254C170.906 309.068 171.055 308.892 171.246 308.727C171.441 308.563 171.675 308.431 171.948 308.331C172.225 308.231 172.544 308.181 172.904 308.181C173.328 308.181 173.718 308.266 174.074 308.435C174.433 308.604 174.719 308.868 174.932 309.228C175.148 309.583 175.257 310.043 175.257 310.606V315H174.054V310.723C174.054 310.199 173.915 309.811 173.638 309.559C173.365 309.304 173.01 309.176 172.572 309.176C172.269 309.176 171.985 309.226 171.721 309.325C171.456 309.421 171.242 309.568 171.077 309.767C170.912 309.962 170.83 310.209 170.83 310.508V315H169.634ZM180.134 309.156H178.62V313.336C178.62 313.574 178.644 313.75 178.691 313.862C178.743 313.971 178.828 314.04 178.945 314.07C179.066 314.101 179.231 314.116 179.439 314.116H180.173V314.922C180.091 314.952 179.965 314.978 179.796 315C179.632 315.022 179.426 315.033 179.179 315.033C178.715 315.033 178.355 314.97 178.1 314.844C177.844 314.718 177.664 314.532 177.56 314.285C177.461 314.038 177.411 313.735 177.411 313.375V309.156H176.319V308.279H177.443L177.736 306.322H178.62V308.272H180.134V309.156ZM187.164 315.13C186.544 315.13 186.003 314.998 185.539 314.733C185.075 314.465 184.716 314.073 184.46 313.557C184.204 313.041 184.076 312.411 184.076 311.665C184.076 310.963 184.196 310.348 184.434 309.819C184.672 309.291 185.021 308.881 185.48 308.591C185.944 308.296 186.505 308.149 187.164 308.149C187.784 308.149 188.321 308.285 188.776 308.558C189.235 308.827 189.591 309.224 189.842 309.748C190.093 310.272 190.219 310.911 190.219 311.665C190.219 312.35 190.102 312.952 189.868 313.472C189.638 313.992 189.296 314.4 188.841 314.694C188.39 314.985 187.831 315.13 187.164 315.13ZM187.164 314.181C187.567 314.181 187.907 314.079 188.184 313.875C188.462 313.672 188.672 313.379 188.815 312.998C188.958 312.617 189.029 312.164 189.029 311.639C189.029 311.158 188.967 310.727 188.841 310.346C188.715 309.96 188.514 309.655 188.236 309.429C187.963 309.204 187.606 309.091 187.164 309.091C186.757 309.091 186.412 309.193 186.13 309.397C185.849 309.596 185.634 309.887 185.487 310.268C185.344 310.649 185.272 311.106 185.272 311.639C185.272 312.112 185.337 312.541 185.467 312.926C185.597 313.312 185.801 313.618 186.078 313.843C186.356 314.068 186.718 314.181 187.164 314.181ZM195.222 308.279V309.156H193.59V315H192.381V309.156H190.964V308.279H192.381V307.239C192.381 306.706 192.518 306.301 192.791 306.023C193.064 305.742 193.471 305.601 194.013 305.601H195.28L195.287 306.452H194.279C194.006 306.452 193.82 306.526 193.72 306.673C193.62 306.821 193.571 307.044 193.571 307.343V308.279H195.222ZM203.104 315.13C201.977 315.13 201.063 314.905 200.361 314.454C199.659 313.999 199.256 313.299 199.152 312.354L201.128 312.315C201.232 312.744 201.455 313.072 201.797 313.297C202.144 313.518 202.577 313.628 203.097 313.628C203.409 313.628 203.685 313.579 203.923 313.479C204.166 313.375 204.356 313.236 204.495 313.063C204.634 312.885 204.703 312.684 204.703 312.458C204.703 312.112 204.592 311.854 204.371 311.685C204.15 311.512 203.81 311.373 203.351 311.269L201.81 310.938C201.095 310.794 200.521 310.511 200.088 310.086C199.659 309.657 199.44 309.083 199.431 308.363C199.427 307.774 199.585 307.265 199.906 306.836C200.231 306.403 200.671 306.069 201.225 305.835C201.784 305.601 202.411 305.484 203.104 305.484C203.815 305.484 204.428 305.612 204.943 305.867C205.463 306.119 205.862 306.459 206.139 306.888C206.421 307.313 206.558 307.783 206.549 308.298L204.631 308.331C204.571 307.915 204.432 307.588 204.215 307.349C203.999 307.111 203.639 306.992 203.136 306.992C202.876 306.992 202.645 307.02 202.441 307.076C202.237 307.133 202.062 307.213 201.914 307.317C201.767 307.417 201.654 307.536 201.576 307.674C201.503 307.813 201.466 307.969 201.466 308.142C201.466 308.415 201.557 308.632 201.739 308.792C201.925 308.948 202.274 309.094 202.785 309.228L204.3 309.598C205.154 309.802 205.769 310.151 206.146 310.645C206.527 311.139 206.718 311.739 206.718 312.445C206.718 312.987 206.568 313.459 206.269 313.862C205.975 314.265 205.557 314.577 205.015 314.798C204.473 315.02 203.836 315.13 203.104 315.13ZM202.291 304.255H203.936V305.945H202.291V304.255ZM202.259 314.551H203.897V316.242H202.259V314.551ZM211.281 315.143C210.696 315.143 210.15 315.03 209.643 314.805C209.136 314.58 208.722 314.263 208.401 313.856C208.08 313.444 207.901 312.963 207.862 312.413H209.669C209.747 312.777 209.92 313.074 210.189 313.303C210.457 313.529 210.795 313.641 211.203 313.641C211.653 313.641 212.048 313.535 212.386 313.323C212.728 313.111 212.984 312.773 213.153 312.309C213.326 311.845 213.387 311.239 213.335 310.489C213.213 310.719 213.044 310.92 212.828 311.093C212.615 311.262 212.366 311.395 212.08 311.49C211.794 311.581 211.476 311.626 211.125 311.626C210.488 311.626 209.922 311.507 209.428 311.269C208.938 311.026 208.553 310.684 208.271 310.242C207.994 309.796 207.855 309.267 207.855 308.656C207.855 308.041 208.002 307.492 208.297 307.011C208.592 306.53 209.003 306.153 209.532 305.88C210.061 305.607 210.68 305.471 211.391 305.471C212.188 305.471 212.875 305.662 213.452 306.043C214.032 306.42 214.476 306.957 214.784 307.655C215.096 308.348 215.252 309.165 215.252 310.105C215.252 311.228 215.092 312.164 214.771 312.913C214.455 313.659 214 314.218 213.406 314.59C212.812 314.959 212.104 315.143 211.281 315.143ZM211.45 310.118C211.714 310.118 211.97 310.06 212.217 309.943C212.468 309.822 212.674 309.67 212.834 309.488C212.994 309.306 213.075 309.117 213.075 308.922C213.079 308.502 213.012 308.142 212.873 307.843C212.739 307.54 212.548 307.308 212.301 307.148C212.058 306.988 211.775 306.907 211.45 306.907C211.151 306.907 210.884 306.977 210.65 307.115C210.416 307.254 210.232 307.449 210.098 307.7C209.963 307.952 209.896 308.242 209.896 308.571C209.896 309.061 210.039 309.442 210.325 309.715C210.611 309.984 210.986 310.118 211.45 310.118ZM216.461 315V314.064V313.583C216.461 313.106 216.55 312.695 216.727 312.348C216.905 311.997 217.139 311.694 217.429 311.438C217.724 311.178 218.045 310.95 218.391 310.755C218.742 310.56 219.093 310.376 219.444 310.203C219.795 310.03 220.116 309.856 220.406 309.683C220.701 309.505 220.937 309.308 221.115 309.091C221.293 308.875 221.381 308.619 221.381 308.324C221.381 307.947 221.249 307.64 220.985 307.401C220.725 307.163 220.367 307.044 219.912 307.044C219.44 307.044 219.039 307.18 218.71 307.453C218.381 307.726 218.177 308.138 218.099 308.688H216.285C216.294 308.09 216.433 307.549 216.701 307.063C216.974 306.574 217.382 306.186 217.923 305.9C218.465 305.614 219.145 305.471 219.964 305.471C220.666 305.471 221.271 305.59 221.778 305.828C222.289 306.067 222.684 306.398 222.961 306.823C223.238 307.248 223.377 307.744 223.377 308.311C223.377 308.784 223.29 309.191 223.117 309.533C222.944 309.876 222.714 310.168 222.428 310.411C222.142 310.654 221.828 310.866 221.485 311.048C221.143 311.23 220.801 311.399 220.458 311.555C220.12 311.711 219.808 311.871 219.522 312.036C219.236 312.196 219.007 312.378 218.833 312.582C218.66 312.786 218.573 313.03 218.573 313.316V313.401H223.364V315H216.461ZM228.077 305.471C229.195 305.471 230.077 305.889 230.723 306.725C231.368 307.557 231.691 308.756 231.691 310.32C231.691 311.876 231.373 313.069 230.736 313.901C230.099 314.729 229.213 315.143 228.077 315.143C226.938 315.143 226.047 314.729 225.406 313.901C224.769 313.074 224.45 311.882 224.45 310.326C224.45 309.286 224.598 308.405 224.892 307.681C225.187 306.957 225.605 306.409 226.147 306.036C226.688 305.659 227.332 305.471 228.077 305.471ZM228.077 313.589C228.636 313.589 229.046 313.34 229.306 312.842C229.566 312.339 229.696 311.501 229.696 310.326C229.696 309.126 229.564 308.266 229.299 307.746C229.035 307.226 228.625 306.966 228.071 306.966C227.516 306.966 227.102 307.228 226.829 307.752C226.561 308.277 226.426 309.135 226.426 310.326C226.426 311.496 226.561 312.333 226.829 312.835C227.098 313.338 227.514 313.589 228.077 313.589ZM236.949 305.601H238.814V311.328H240.264V312.92H238.814V315H236.988L236.994 312.92H232.665V311.36L236.949 305.601ZM234.42 311.328H236.994V307.882L234.42 311.328ZM136.299 326.279V333H135.136V326.279H136.299ZM136.325 323.607V324.855H135.097V323.607H136.325ZM140.7 333.13C140.232 333.13 139.796 333.059 139.393 332.915C138.994 332.768 138.663 332.541 138.399 332.233C138.134 331.921 137.967 331.524 137.898 331.043H138.99C139.051 331.308 139.159 331.529 139.315 331.706C139.475 331.88 139.675 332.012 139.913 332.103C140.151 332.19 140.411 332.233 140.693 332.233C141.144 332.233 141.508 332.148 141.785 331.979C142.062 331.81 142.201 331.55 142.201 331.199C142.201 330.952 142.127 330.755 141.98 330.608C141.837 330.456 141.614 330.346 141.311 330.276L139.92 329.932C139.378 329.802 138.945 329.598 138.62 329.321C138.295 329.044 138.132 328.656 138.132 328.157C138.128 327.763 138.221 327.416 138.412 327.117C138.602 326.818 138.888 326.582 139.27 326.409C139.651 326.236 140.125 326.149 140.693 326.149C141.421 326.149 142.008 326.314 142.455 326.643C142.905 326.968 143.139 327.447 143.157 328.079H142.097C142.054 327.759 141.909 327.505 141.662 327.319C141.419 327.128 141.092 327.033 140.68 327.033C140.251 327.033 139.902 327.12 139.634 327.293C139.365 327.462 139.231 327.726 139.231 328.086C139.231 328.324 139.326 328.513 139.517 328.651C139.707 328.786 139.989 328.898 140.362 328.989L141.707 329.328C142.019 329.41 142.275 329.518 142.474 329.652C142.678 329.787 142.838 329.936 142.955 330.101C143.076 330.266 143.161 330.439 143.209 330.621C143.261 330.799 143.287 330.97 143.287 331.134C143.287 331.546 143.183 331.901 142.975 332.2C142.771 332.495 142.476 332.725 142.091 332.889C141.709 333.05 141.246 333.13 140.7 333.13ZM150.225 326.149C150.706 326.149 151.139 326.242 151.525 326.428C151.91 326.61 152.225 326.87 152.467 327.208C152.714 327.546 152.868 327.945 152.929 328.404H151.863C151.824 328.17 151.733 327.956 151.59 327.761C151.451 327.566 151.267 327.41 151.037 327.293C150.808 327.176 150.539 327.117 150.231 327.117C149.655 327.117 149.187 327.325 148.827 327.741C148.468 328.157 148.288 328.794 148.288 329.652C148.288 330.428 148.452 331.05 148.782 331.518C149.115 331.982 149.605 332.213 150.251 332.213C150.558 332.213 150.825 332.155 151.05 332.038C151.28 331.917 151.464 331.758 151.603 331.563C151.741 331.364 151.83 331.152 151.869 330.926H152.916C152.859 331.377 152.708 331.767 152.461 332.096C152.214 332.426 151.897 332.681 151.512 332.863C151.13 333.041 150.701 333.13 150.225 333.13C149.622 333.13 149.087 332.998 148.619 332.733C148.156 332.469 147.792 332.079 147.527 331.563C147.263 331.048 147.131 330.415 147.131 329.665C147.131 328.963 147.25 328.35 147.488 327.826C147.731 327.297 148.082 326.886 148.541 326.591C149.005 326.296 149.566 326.149 150.225 326.149ZM157.126 333.13C156.506 333.13 155.965 332.998 155.501 332.733C155.037 332.465 154.678 332.073 154.422 331.557C154.166 331.041 154.039 330.411 154.039 329.665C154.039 328.963 154.158 328.348 154.396 327.819C154.634 327.291 154.983 326.881 155.443 326.591C155.906 326.296 156.467 326.149 157.126 326.149C157.746 326.149 158.283 326.285 158.738 326.558C159.197 326.827 159.553 327.224 159.804 327.748C160.055 328.272 160.181 328.911 160.181 329.665C160.181 330.35 160.064 330.952 159.83 331.472C159.6 331.992 159.258 332.4 158.803 332.694C158.352 332.985 157.793 333.13 157.126 333.13ZM157.126 332.181C157.529 332.181 157.869 332.079 158.147 331.875C158.424 331.672 158.634 331.379 158.777 330.998C158.92 330.617 158.992 330.164 158.992 329.639C158.992 329.158 158.929 328.727 158.803 328.346C158.677 327.96 158.476 327.655 158.199 327.429C157.926 327.204 157.568 327.091 157.126 327.091C156.719 327.091 156.374 327.193 156.093 327.397C155.811 327.596 155.596 327.887 155.449 328.268C155.306 328.649 155.235 329.106 155.235 329.639C155.235 330.112 155.3 330.541 155.43 330.926C155.56 331.312 155.763 331.618 156.041 331.843C156.318 332.068 156.68 332.181 157.126 332.181ZM161.654 333V326.279H162.811V327.254C162.998 326.959 163.253 326.701 163.578 326.48C163.903 326.259 164.326 326.149 164.846 326.149C165.089 326.149 165.336 326.19 165.587 326.272C165.843 326.355 166.077 326.478 166.289 326.643C166.501 326.808 166.666 327.009 166.783 327.247C166.991 326.918 167.273 326.654 167.628 326.454C167.983 326.251 168.384 326.149 168.83 326.149C169.064 326.149 169.309 326.186 169.565 326.259C169.821 326.329 170.057 326.454 170.273 326.636C170.494 326.814 170.674 327.063 170.813 327.384C170.952 327.7 171.021 328.108 171.021 328.606V333H169.812V328.723C169.812 328.316 169.747 328.001 169.617 327.78C169.487 327.555 169.316 327.397 169.103 327.306C168.895 327.215 168.672 327.169 168.434 327.169C168.226 327.169 168.005 327.211 167.771 327.293C167.537 327.375 167.338 327.514 167.173 327.709C167.008 327.904 166.926 328.17 166.926 328.508V333H165.73V328.372C165.73 328.108 165.658 327.887 165.515 327.709C165.377 327.531 165.201 327.397 164.989 327.306C164.781 327.215 164.573 327.169 164.365 327.169C164.135 327.169 163.903 327.215 163.669 327.306C163.44 327.397 163.245 327.542 163.084 327.741C162.928 327.936 162.85 328.192 162.85 328.508V333H161.654ZM172.802 335.093V326.279H173.998L174.011 327.449C174.089 327.31 174.189 327.165 174.31 327.013C174.436 326.862 174.588 326.721 174.765 326.591C174.947 326.461 175.158 326.355 175.396 326.272C175.639 326.19 175.914 326.149 176.221 326.149C176.759 326.149 177.231 326.272 177.638 326.519C178.05 326.762 178.371 327.135 178.6 327.637C178.83 328.14 178.945 328.777 178.945 329.548C178.945 330.32 178.832 330.972 178.607 331.505C178.386 332.034 178.065 332.437 177.645 332.714C177.225 332.991 176.718 333.13 176.124 333.13C175.825 333.13 175.558 333.087 175.324 333C175.095 332.918 174.893 332.809 174.72 332.675C174.551 332.536 174.408 332.389 174.291 332.233C174.178 332.077 174.085 331.927 174.011 331.784V335.093H172.802ZM175.896 332.194C176.451 332.194 176.904 331.984 177.255 331.563C177.606 331.139 177.781 330.48 177.781 329.587C177.781 328.82 177.621 328.212 177.3 327.761C176.98 327.31 176.512 327.085 175.896 327.085C175.272 327.085 174.8 327.317 174.479 327.78C174.159 328.24 173.998 328.842 173.998 329.587C173.998 330.068 174.07 330.506 174.213 330.9C174.356 331.295 174.568 331.609 174.85 331.843C175.132 332.077 175.48 332.194 175.896 332.194ZM182.118 333.085C181.754 333.085 181.459 333.035 181.234 332.935C181.013 332.835 180.841 332.701 180.72 332.532C180.603 332.363 180.523 332.17 180.48 331.953C180.441 331.732 180.421 331.505 180.421 331.271V323.341H181.604V331.154C181.604 331.492 181.669 331.745 181.799 331.914C181.933 332.083 182.12 332.177 182.358 332.194L182.722 332.2V332.98C182.622 333.011 182.518 333.035 182.41 333.052C182.302 333.074 182.204 333.085 182.118 333.085ZM184.95 329.919C184.95 330.344 185.019 330.729 185.158 331.076C185.301 331.418 185.515 331.691 185.801 331.895C186.092 332.099 186.453 332.2 186.887 332.2C187.316 332.2 187.684 332.101 187.992 331.901C188.304 331.702 188.503 331.414 188.59 331.037H189.727C189.645 331.492 189.463 331.875 189.181 332.188C188.9 332.499 188.559 332.736 188.161 332.896C187.762 333.052 187.346 333.13 186.913 333.13C186.284 333.13 185.732 332.994 185.255 332.72C184.779 332.447 184.406 332.055 184.137 331.544C183.869 331.033 183.734 330.419 183.734 329.704C183.734 328.998 183.856 328.378 184.098 327.845C184.341 327.312 184.692 326.896 185.151 326.597C185.615 326.298 186.172 326.149 186.822 326.149C187.454 326.149 187.99 326.285 188.427 326.558C188.865 326.831 189.196 327.217 189.422 327.715C189.651 328.209 189.766 328.797 189.766 329.477V329.919H184.95ZM184.956 329.106H188.609C188.609 328.721 188.544 328.374 188.414 328.066C188.284 327.754 188.085 327.51 187.816 327.332C187.552 327.15 187.218 327.059 186.815 327.059C186.395 327.059 186.046 327.161 185.769 327.364C185.496 327.564 185.29 327.822 185.151 328.138C185.017 328.45 184.952 328.773 184.956 329.106ZM194.516 327.156H193.001V331.336C193.001 331.574 193.025 331.75 193.073 331.862C193.125 331.971 193.209 332.04 193.326 332.07C193.448 332.101 193.612 332.116 193.82 332.116H194.555V332.922C194.472 332.952 194.347 332.978 194.178 333C194.013 333.022 193.807 333.033 193.56 333.033C193.097 333.033 192.737 332.97 192.481 332.844C192.226 332.718 192.046 332.532 191.942 332.285C191.842 332.038 191.792 331.735 191.792 331.375V327.156H190.7V326.279H191.825L192.117 324.322H193.001V326.272H194.516V327.156ZM196.823 329.919C196.823 330.344 196.892 330.729 197.031 331.076C197.174 331.418 197.388 331.691 197.674 331.895C197.965 332.099 198.327 332.2 198.76 332.2C199.189 332.2 199.557 332.101 199.865 331.901C200.177 331.702 200.376 331.414 200.463 331.037H201.6C201.518 331.492 201.336 331.875 201.054 332.188C200.773 332.499 200.433 332.736 200.034 332.896C199.635 333.052 199.219 333.13 198.786 333.13C198.158 333.13 197.605 332.994 197.128 332.72C196.652 332.447 196.279 332.055 196.01 331.544C195.742 331.033 195.607 330.419 195.607 329.704C195.607 328.998 195.729 328.378 195.971 327.845C196.214 327.312 196.565 326.896 197.024 326.597C197.488 326.298 198.045 326.149 198.695 326.149C199.328 326.149 199.863 326.285 200.3 326.558C200.738 326.831 201.07 327.217 201.295 327.715C201.525 328.209 201.639 328.797 201.639 329.477V329.919H196.823ZM196.829 329.106H200.482C200.482 328.721 200.417 328.374 200.287 328.066C200.157 327.754 199.958 327.51 199.689 327.332C199.425 327.15 199.091 327.059 198.688 327.059C198.268 327.059 197.919 327.161 197.642 327.364C197.369 327.564 197.163 327.822 197.024 328.138C196.89 328.45 196.825 328.773 196.829 329.106ZM205.615 333.13C204.744 333.13 204.052 332.831 203.541 332.233C203.03 331.635 202.774 330.762 202.774 329.613C202.774 328.916 202.876 328.307 203.08 327.787C203.288 327.267 203.595 326.864 204.003 326.578C204.41 326.292 204.917 326.149 205.524 326.149C205.844 326.149 206.128 326.19 206.375 326.272C206.626 326.355 206.843 326.459 207.025 326.584C207.207 326.71 207.354 326.84 207.467 326.974C207.584 327.109 207.671 327.232 207.727 327.345V323.341H208.936V333H208.02L207.89 331.622C207.846 331.752 207.777 331.904 207.682 332.077C207.586 332.246 207.452 332.413 207.279 332.577C207.105 332.738 206.882 332.87 206.609 332.974C206.34 333.078 206.009 333.13 205.615 333.13ZM205.829 332.207C206.509 332.207 206.995 332.001 207.285 331.589C207.58 331.173 207.727 330.495 207.727 329.555C207.723 329.031 207.656 328.584 207.526 328.216C207.4 327.848 207.201 327.568 206.928 327.377C206.659 327.182 206.301 327.085 205.855 327.085C205.3 327.085 204.85 327.282 204.503 327.676C204.156 328.071 203.983 328.697 203.983 329.555C203.983 330.396 204.139 331.048 204.451 331.511C204.767 331.975 205.227 332.207 205.829 332.207ZM215.577 333.13C215.143 333.13 214.76 333.054 214.426 332.902C214.092 332.746 213.83 332.523 213.64 332.233C213.453 331.943 213.36 331.592 213.36 331.18C213.36 330.435 213.62 329.88 214.14 329.516C214.66 329.152 215.494 328.957 216.643 328.931L217.845 328.898V328.372C217.845 327.96 217.722 327.635 217.475 327.397C217.228 327.154 216.844 327.033 216.324 327.033C215.938 327.037 215.598 327.128 215.304 327.306C215.013 327.484 214.825 327.774 214.738 328.177H213.679C213.705 327.739 213.828 327.371 214.049 327.072C214.27 326.769 214.578 326.539 214.972 326.383C215.371 326.227 215.841 326.149 216.383 326.149C216.968 326.149 217.453 326.231 217.839 326.396C218.229 326.561 218.519 326.803 218.71 327.124C218.905 327.445 219.002 327.839 219.002 328.307V333H217.975L217.891 331.739C217.631 332.263 217.299 332.627 216.896 332.831C216.497 333.03 216.058 333.13 215.577 333.13ZM215.941 332.265C216.166 332.265 216.389 332.224 216.61 332.142C216.835 332.06 217.041 331.949 217.228 331.81C217.414 331.667 217.561 331.509 217.67 331.336C217.782 331.158 217.841 330.976 217.845 330.79V329.639L216.844 329.659C216.333 329.668 215.904 329.72 215.557 329.815C215.215 329.91 214.957 330.06 214.784 330.263C214.615 330.467 214.53 330.734 214.53 331.063C214.53 331.44 214.66 331.735 214.92 331.947C215.184 332.159 215.525 332.265 215.941 332.265ZM220.956 333V326.279H222.119V327.254C222.227 327.068 222.377 326.892 222.568 326.727C222.763 326.563 222.997 326.431 223.27 326.331C223.547 326.231 223.865 326.181 224.225 326.181C224.65 326.181 225.04 326.266 225.395 326.435C225.755 326.604 226.041 326.868 226.253 327.228C226.47 327.583 226.578 328.043 226.578 328.606V333H225.376V328.723C225.376 328.199 225.237 327.811 224.96 327.559C224.687 327.304 224.331 327.176 223.894 327.176C223.59 327.176 223.306 327.226 223.042 327.325C222.778 327.421 222.563 327.568 222.399 327.767C222.234 327.962 222.152 328.209 222.152 328.508V333H220.956ZM230.783 333.13C229.912 333.13 229.221 332.831 228.709 332.233C228.198 331.635 227.942 330.762 227.942 329.613C227.942 328.916 228.044 328.307 228.248 327.787C228.456 327.267 228.764 326.864 229.171 326.578C229.578 326.292 230.085 326.149 230.692 326.149C231.013 326.149 231.296 326.19 231.543 326.272C231.795 326.355 232.011 326.459 232.193 326.584C232.375 326.71 232.523 326.84 232.635 326.974C232.752 327.109 232.839 327.232 232.895 327.345V323.341H234.104V333H233.188L233.058 331.622C233.015 331.752 232.945 331.904 232.85 332.077C232.755 332.246 232.62 332.413 232.447 332.577C232.274 332.738 232.05 332.87 231.777 332.974C231.509 333.078 231.177 333.13 230.783 333.13ZM230.997 332.207C231.678 332.207 232.163 332.001 232.453 331.589C232.748 331.173 232.895 330.495 232.895 329.555C232.891 329.031 232.824 328.584 232.694 328.216C232.568 327.848 232.369 327.568 232.096 327.377C231.827 327.182 231.47 327.085 231.023 327.085C230.469 327.085 230.018 327.282 229.671 327.676C229.325 328.071 229.151 328.697 229.151 329.555C229.151 330.396 229.307 331.048 229.619 331.511C229.936 331.975 230.395 332.207 230.997 332.207ZM115.997 353.093V344.279H117.193L117.206 345.449C117.284 345.31 117.383 345.165 117.505 345.013C117.63 344.862 117.782 344.721 117.96 344.591C118.142 344.461 118.352 344.355 118.59 344.272C118.833 344.19 119.108 344.149 119.416 344.149C119.953 344.149 120.425 344.272 120.833 344.519C121.244 344.762 121.565 345.135 121.795 345.637C122.024 346.14 122.139 346.777 122.139 347.548C122.139 348.32 122.026 348.972 121.801 349.505C121.58 350.034 121.259 350.437 120.839 350.714C120.419 350.991 119.912 351.13 119.318 351.13C119.019 351.13 118.753 351.087 118.519 351C118.289 350.918 118.087 350.809 117.914 350.675C117.745 350.536 117.602 350.389 117.485 350.233C117.372 350.077 117.279 349.927 117.206 349.784V353.093H115.997ZM119.091 350.194C119.645 350.194 120.098 349.984 120.449 349.563C120.8 349.139 120.976 348.48 120.976 347.587C120.976 346.82 120.815 346.212 120.495 345.761C120.174 345.31 119.706 345.085 119.091 345.085C118.467 345.085 117.994 345.317 117.674 345.78C117.353 346.24 117.193 346.842 117.193 347.587C117.193 348.068 117.264 348.506 117.407 348.9C117.55 349.295 117.762 349.609 118.044 349.843C118.326 350.077 118.675 350.194 119.091 350.194ZM123.615 351V344.279H124.759V345.572C124.872 345.252 125.03 344.987 125.234 344.779C125.438 344.567 125.669 344.409 125.929 344.305C126.194 344.201 126.467 344.149 126.748 344.149C126.848 344.149 126.946 344.155 127.041 344.169C127.136 344.181 127.21 344.203 127.262 344.233V345.397C127.197 345.367 127.112 345.347 127.008 345.338C126.909 345.325 126.824 345.319 126.755 345.319C126.486 345.302 126.235 345.319 126.001 345.371C125.767 345.419 125.561 345.503 125.383 345.624C125.206 345.746 125.065 345.906 124.961 346.105C124.861 346.3 124.811 346.539 124.811 346.82V351H123.615ZM131.087 351.13C130.468 351.13 129.926 350.998 129.462 350.733C128.999 350.465 128.639 350.073 128.383 349.557C128.128 349.041 128 348.411 128 347.665C128 346.963 128.119 346.348 128.357 345.819C128.596 345.291 128.944 344.881 129.404 344.591C129.867 344.296 130.429 344.149 131.087 344.149C131.707 344.149 132.244 344.285 132.699 344.558C133.159 344.827 133.514 345.224 133.765 345.748C134.017 346.272 134.142 346.911 134.142 347.665C134.142 348.35 134.025 348.952 133.791 349.472C133.562 349.992 133.219 350.4 132.764 350.694C132.314 350.985 131.755 351.13 131.087 351.13ZM131.087 350.181C131.49 350.181 131.83 350.079 132.108 349.875C132.385 349.672 132.595 349.379 132.738 348.998C132.881 348.617 132.953 348.164 132.953 347.639C132.953 347.158 132.89 346.727 132.764 346.346C132.639 345.96 132.437 345.655 132.16 345.429C131.887 345.204 131.529 345.091 131.087 345.091C130.68 345.091 130.335 345.193 130.054 345.397C129.772 345.596 129.558 345.887 129.41 346.268C129.267 346.649 129.196 347.106 129.196 347.639C129.196 348.112 129.261 348.541 129.391 348.926C129.521 349.312 129.724 349.618 130.002 349.843C130.279 350.068 130.641 350.181 131.087 350.181ZM138.294 344.149C138.775 344.149 139.208 344.242 139.594 344.428C139.979 344.61 140.293 344.87 140.536 345.208C140.783 345.546 140.937 345.945 140.998 346.404H139.932C139.893 346.17 139.802 345.956 139.659 345.761C139.52 345.566 139.336 345.41 139.106 345.293C138.876 345.176 138.608 345.117 138.3 345.117C137.724 345.117 137.256 345.325 136.896 345.741C136.536 346.157 136.357 346.794 136.357 347.652C136.357 348.428 136.521 349.05 136.851 349.518C137.184 349.982 137.674 350.213 138.32 350.213C138.627 350.213 138.894 350.155 139.119 350.038C139.349 349.917 139.533 349.758 139.672 349.563C139.81 349.364 139.899 349.152 139.938 348.926H140.985C140.928 349.377 140.777 349.767 140.53 350.096C140.283 350.426 139.966 350.681 139.581 350.863C139.199 351.041 138.77 351.13 138.294 351.13C137.691 351.13 137.156 350.998 136.688 350.733C136.224 350.469 135.86 350.079 135.596 349.563C135.332 349.048 135.2 348.415 135.2 347.665C135.2 346.963 135.319 346.35 135.557 345.826C135.8 345.297 136.151 344.886 136.61 344.591C137.074 344.296 137.635 344.149 138.294 344.149ZM143.381 347.919C143.381 348.344 143.451 348.729 143.589 349.076C143.732 349.418 143.947 349.691 144.233 349.895C144.523 350.099 144.885 350.2 145.318 350.2C145.747 350.2 146.116 350.101 146.423 349.901C146.735 349.702 146.935 349.414 147.021 349.037H148.159C148.077 349.492 147.895 349.875 147.613 350.188C147.331 350.499 146.991 350.736 146.592 350.896C146.194 351.052 145.778 351.13 145.344 351.13C144.716 351.13 144.164 350.994 143.687 350.72C143.21 350.447 142.838 350.055 142.569 349.544C142.3 349.033 142.166 348.419 142.166 347.704C142.166 346.998 142.287 346.378 142.53 345.845C142.773 345.312 143.124 344.896 143.583 344.597C144.047 344.298 144.603 344.149 145.253 344.149C145.886 344.149 146.421 344.285 146.859 344.558C147.297 344.831 147.628 345.217 147.853 345.715C148.083 346.209 148.198 346.797 148.198 347.477V347.919H143.381ZM143.388 347.106H147.041C147.041 346.721 146.976 346.374 146.846 346.066C146.716 345.754 146.517 345.51 146.248 345.332C145.984 345.15 145.65 345.059 145.247 345.059C144.827 345.059 144.478 345.161 144.2 345.364C143.927 345.564 143.722 345.822 143.583 346.138C143.449 346.45 143.384 346.773 143.388 347.106ZM152.096 351.13C151.628 351.13 151.193 351.059 150.79 350.915C150.391 350.768 150.059 350.541 149.795 350.233C149.531 349.921 149.364 349.524 149.295 349.043H150.387C150.447 349.308 150.556 349.529 150.712 349.706C150.872 349.88 151.071 350.012 151.31 350.103C151.548 350.19 151.808 350.233 152.09 350.233C152.54 350.233 152.904 350.148 153.182 349.979C153.459 349.81 153.598 349.55 153.598 349.199C153.598 348.952 153.524 348.755 153.377 348.608C153.234 348.456 153.01 348.346 152.707 348.276L151.316 347.932C150.774 347.802 150.341 347.598 150.016 347.321C149.691 347.044 149.529 346.656 149.529 346.157C149.524 345.763 149.617 345.416 149.808 345.117C149.999 344.818 150.285 344.582 150.666 344.409C151.047 344.236 151.522 344.149 152.09 344.149C152.818 344.149 153.405 344.314 153.851 344.643C154.302 344.968 154.536 345.447 154.553 346.079H153.494C153.45 345.759 153.305 345.505 153.058 345.319C152.815 345.128 152.488 345.033 152.077 345.033C151.648 345.033 151.299 345.12 151.03 345.293C150.761 345.462 150.627 345.726 150.627 346.086C150.627 346.324 150.722 346.513 150.913 346.651C151.104 346.786 151.385 346.898 151.758 346.989L153.104 347.328C153.416 347.41 153.671 347.518 153.871 347.652C154.074 347.787 154.235 347.936 154.352 348.101C154.473 348.266 154.557 348.439 154.605 348.621C154.657 348.799 154.683 348.97 154.683 349.134C154.683 349.546 154.579 349.901 154.371 350.2C154.167 350.495 153.873 350.725 153.487 350.889C153.106 351.05 152.642 351.13 152.096 351.13ZM158.547 351.13C158.079 351.13 157.643 351.059 157.24 350.915C156.842 350.768 156.51 350.541 156.246 350.233C155.981 349.921 155.815 349.524 155.745 349.043H156.837C156.898 349.308 157.006 349.529 157.162 349.706C157.323 349.88 157.522 350.012 157.76 350.103C157.999 350.19 158.259 350.233 158.54 350.233C158.991 350.233 159.355 350.148 159.632 349.979C159.91 349.81 160.048 349.55 160.048 349.199C160.048 348.952 159.975 348.755 159.827 348.608C159.684 348.456 159.461 348.346 159.158 348.276L157.767 347.932C157.225 347.802 156.792 347.598 156.467 347.321C156.142 347.044 155.979 346.656 155.979 346.157C155.975 345.763 156.068 345.416 156.259 345.117C156.449 344.818 156.735 344.582 157.117 344.409C157.498 344.236 157.973 344.149 158.54 344.149C159.268 344.149 159.855 344.314 160.302 344.643C160.752 344.968 160.986 345.447 161.004 346.079H159.944C159.901 345.759 159.756 345.505 159.509 345.319C159.266 345.128 158.939 345.033 158.527 345.033C158.098 345.033 157.749 345.12 157.481 345.293C157.212 345.462 157.078 345.726 157.078 346.086C157.078 346.324 157.173 346.513 157.364 346.651C157.554 346.786 157.836 346.898 158.209 346.989L159.554 347.328C159.866 347.41 160.122 347.518 160.321 347.652C160.525 347.787 160.685 347.936 160.802 348.101C160.924 348.266 161.008 348.439 161.056 348.621C161.108 348.799 161.134 348.97 161.134 349.134C161.134 349.546 161.03 349.901 160.822 350.2C160.618 350.495 160.323 350.725 159.938 350.889C159.556 351.05 159.093 351.13 158.547 351.13ZM163.572 347.919C163.572 348.344 163.641 348.729 163.78 349.076C163.923 349.418 164.137 349.691 164.423 349.895C164.713 350.099 165.075 350.2 165.509 350.2C165.938 350.2 166.306 350.101 166.614 349.901C166.926 349.702 167.125 349.414 167.212 349.037H168.349C168.267 349.492 168.085 349.875 167.803 350.188C167.521 350.499 167.181 350.736 166.783 350.896C166.384 351.052 165.968 351.13 165.535 351.13C164.906 351.13 164.354 350.994 163.877 350.72C163.4 350.447 163.028 350.055 162.759 349.544C162.49 349.033 162.356 348.419 162.356 347.704C162.356 346.998 162.477 346.378 162.72 345.845C162.963 345.312 163.314 344.896 163.773 344.597C164.237 344.298 164.794 344.149 165.444 344.149C166.076 344.149 166.611 344.285 167.049 344.558C167.487 344.831 167.818 345.217 168.044 345.715C168.273 346.209 168.388 346.797 168.388 347.477V347.919H163.572ZM163.578 347.106H167.231C167.231 346.721 167.166 346.374 167.036 346.066C166.906 345.754 166.707 345.51 166.438 345.332C166.174 345.15 165.84 345.059 165.437 345.059C165.017 345.059 164.668 345.161 164.391 345.364C164.118 345.564 163.912 345.822 163.773 346.138C163.639 346.45 163.574 346.773 163.578 347.106ZM172.363 351.13C171.492 351.13 170.801 350.831 170.29 350.233C169.779 349.635 169.523 348.762 169.523 347.613C169.523 346.916 169.625 346.307 169.828 345.787C170.036 345.267 170.344 344.864 170.751 344.578C171.159 344.292 171.666 344.149 172.272 344.149C172.593 344.149 172.877 344.19 173.124 344.272C173.375 344.355 173.592 344.459 173.774 344.584C173.956 344.71 174.103 344.84 174.216 344.974C174.333 345.109 174.42 345.232 174.476 345.345V341.341H175.685V351H174.768L174.638 349.622C174.595 349.752 174.526 349.904 174.43 350.077C174.335 350.246 174.201 350.413 174.027 350.577C173.854 350.738 173.631 350.87 173.358 350.974C173.089 351.078 172.758 351.13 172.363 351.13ZM172.578 350.207C173.258 350.207 173.744 350.001 174.034 349.589C174.329 349.173 174.476 348.495 174.476 347.555C174.472 347.031 174.404 346.584 174.274 346.216C174.149 345.848 173.949 345.568 173.676 345.377C173.408 345.182 173.05 345.085 172.604 345.085C172.049 345.085 171.599 345.282 171.252 345.676C170.905 346.071 170.732 346.697 170.732 347.555C170.732 348.396 170.888 349.048 171.2 349.511C171.516 349.975 171.976 350.207 172.578 350.207ZM182.852 351.13C182.384 351.13 181.948 351.059 181.545 350.915C181.147 350.768 180.815 350.541 180.551 350.233C180.287 349.921 180.12 349.524 180.05 349.043H181.142C181.203 349.308 181.311 349.529 181.467 349.706C181.628 349.88 181.827 350.012 182.065 350.103C182.304 350.19 182.564 350.233 182.845 350.233C183.296 350.233 183.66 350.148 183.937 349.979C184.215 349.81 184.353 349.55 184.353 349.199C184.353 348.952 184.28 348.755 184.132 348.608C183.989 348.456 183.766 348.346 183.463 348.276L182.072 347.932C181.53 347.802 181.097 347.598 180.772 347.321C180.447 347.044 180.284 346.656 180.284 346.157C180.28 345.763 180.373 345.416 180.564 345.117C180.755 344.818 181.041 344.582 181.422 344.409C181.803 344.236 182.278 344.149 182.845 344.149C183.573 344.149 184.161 344.314 184.607 344.643C185.058 344.968 185.292 345.447 185.309 346.079H184.249C184.206 345.759 184.061 345.505 183.814 345.319C183.571 345.128 183.244 345.033 182.832 345.033C182.403 345.033 182.055 345.12 181.786 345.293C181.517 345.462 181.383 345.726 181.383 346.086C181.383 346.324 181.478 346.513 181.669 346.651C181.86 346.786 182.141 346.898 182.514 346.989L183.859 347.328C184.171 347.41 184.427 347.518 184.626 347.652C184.83 347.787 184.99 347.936 185.107 348.101C185.229 348.266 185.313 348.439 185.361 348.621C185.413 348.799 185.439 348.97 185.439 349.134C185.439 349.546 185.335 349.901 185.127 350.2C184.923 350.495 184.629 350.725 184.243 350.889C183.862 351.05 183.398 351.13 182.852 351.13ZM189.489 351.13C189.138 351.126 188.806 351.076 188.494 350.98C188.187 350.881 187.914 350.736 187.675 350.545C187.437 350.354 187.248 350.118 187.11 349.836C186.975 349.55 186.908 349.219 186.908 348.842V344.279H188.111V348.718C188.111 349.156 188.245 349.511 188.514 349.784C188.787 350.057 189.196 350.194 189.742 350.194C190.236 350.194 190.633 350.066 190.932 349.81C191.235 349.55 191.387 349.165 191.387 348.653V344.279H192.583V351H191.627L191.504 349.713C191.421 350.051 191.281 350.324 191.081 350.532C190.886 350.74 190.65 350.894 190.373 350.993C190.1 351.089 189.805 351.134 189.489 351.13ZM197.036 344.149C197.517 344.149 197.951 344.242 198.336 344.428C198.722 344.61 199.036 344.87 199.279 345.208C199.526 345.546 199.68 345.945 199.74 346.404H198.674C198.635 346.17 198.544 345.956 198.401 345.761C198.263 345.566 198.078 345.41 197.849 345.293C197.619 345.176 197.35 345.117 197.043 345.117C196.466 345.117 195.998 345.325 195.639 345.741C195.279 346.157 195.099 346.794 195.099 347.652C195.099 348.428 195.264 349.05 195.593 349.518C195.927 349.982 196.417 350.213 197.062 350.213C197.37 350.213 197.636 350.155 197.862 350.038C198.091 349.917 198.276 349.758 198.414 349.563C198.553 349.364 198.642 349.152 198.681 348.926H199.727C199.671 349.377 199.519 349.767 199.272 350.096C199.025 350.426 198.709 350.681 198.323 350.863C197.942 351.041 197.513 351.13 197.036 351.13C196.434 351.13 195.899 350.998 195.431 350.733C194.967 350.469 194.603 350.079 194.339 349.563C194.074 349.048 193.942 348.415 193.942 347.665C193.942 346.963 194.061 346.35 194.3 345.826C194.542 345.297 194.893 344.886 195.353 344.591C195.816 344.296 196.378 344.149 197.036 344.149ZM203.944 344.149C204.425 344.149 204.858 344.242 205.244 344.428C205.63 344.61 205.944 344.87 206.186 345.208C206.433 345.546 206.587 345.945 206.648 346.404H205.582C205.543 346.17 205.452 345.956 205.309 345.761C205.17 345.566 204.986 345.41 204.756 345.293C204.527 345.176 204.258 345.117 203.95 345.117C203.374 345.117 202.906 345.325 202.546 345.741C202.187 346.157 202.007 346.794 202.007 347.652C202.007 348.428 202.172 349.05 202.501 349.518C202.835 349.982 203.324 350.213 203.97 350.213C204.278 350.213 204.544 350.155 204.769 350.038C204.999 349.917 205.183 349.758 205.322 349.563C205.461 349.364 205.549 349.152 205.588 348.926H206.635C206.579 349.377 206.427 349.767 206.18 350.096C205.933 350.426 205.617 350.681 205.231 350.863C204.85 351.041 204.421 351.13 203.944 351.13C203.342 351.13 202.806 350.998 202.338 350.733C201.875 350.469 201.511 350.079 201.246 349.563C200.982 349.048 200.85 348.415 200.85 347.665C200.85 346.963 200.969 346.35 201.207 345.826C201.45 345.297 201.801 344.886 202.26 344.591C202.724 344.296 203.285 344.149 203.944 344.149ZM209.032 347.919C209.032 348.344 209.101 348.729 209.24 349.076C209.383 349.418 209.597 349.691 209.883 349.895C210.174 350.099 210.535 350.2 210.969 350.2C211.398 350.2 211.766 350.101 212.074 349.901C212.386 349.702 212.585 349.414 212.672 349.037H213.809C213.727 349.492 213.545 349.875 213.263 350.188C212.982 350.499 212.641 350.736 212.243 350.896C211.844 351.052 211.428 351.13 210.995 351.13C210.366 351.13 209.814 350.994 209.337 350.72C208.861 350.447 208.488 350.055 208.219 349.544C207.951 349.033 207.816 348.419 207.816 347.704C207.816 346.998 207.938 346.378 208.18 345.845C208.423 345.312 208.774 344.896 209.233 344.597C209.697 344.298 210.254 344.149 210.904 344.149C211.536 344.149 212.072 344.285 212.509 344.558C212.947 344.831 213.278 345.217 213.504 345.715C213.733 346.209 213.848 346.797 213.848 347.477V347.919H209.032ZM209.038 347.106H212.691C212.691 346.721 212.626 346.374 212.496 346.066C212.366 345.754 212.167 345.51 211.898 345.332C211.634 345.15 211.3 345.059 210.897 345.059C210.477 345.059 210.128 345.161 209.851 345.364C209.578 345.564 209.372 345.822 209.233 346.138C209.099 346.45 209.034 346.773 209.038 347.106ZM217.746 351.13C217.278 351.13 216.843 351.059 216.44 350.915C216.041 350.768 215.71 350.541 215.445 350.233C215.181 349.921 215.014 349.524 214.945 349.043H216.037C216.098 349.308 216.206 349.529 216.362 349.706C216.522 349.88 216.722 350.012 216.96 350.103C217.198 350.19 217.458 350.233 217.74 350.233C218.191 350.233 218.555 350.148 218.832 349.979C219.109 349.81 219.248 349.55 219.248 349.199C219.248 348.952 219.174 348.755 219.027 348.608C218.884 348.456 218.661 348.346 218.357 348.276L216.966 347.932C216.425 347.802 215.991 347.598 215.666 347.321C215.341 347.044 215.179 346.656 215.179 346.157C215.175 345.763 215.268 345.416 215.458 345.117C215.649 344.818 215.935 344.582 216.316 344.409C216.698 344.236 217.172 344.149 217.74 344.149C218.468 344.149 219.055 344.314 219.501 344.643C219.952 344.968 220.186 345.447 220.203 346.079H219.144C219.101 345.759 218.955 345.505 218.708 345.319C218.466 345.128 218.139 345.033 217.727 345.033C217.298 345.033 216.949 345.12 216.68 345.293C216.412 345.462 216.277 345.726 216.277 346.086C216.277 346.324 216.373 346.513 216.563 346.651C216.754 346.786 217.036 346.898 217.408 346.989L218.754 347.328C219.066 347.41 219.322 347.518 219.521 347.652C219.725 347.787 219.885 347.936 220.002 348.101C220.123 348.266 220.208 348.439 220.255 348.621C220.307 348.799 220.333 348.97 220.333 349.134C220.333 349.546 220.229 349.901 220.021 350.2C219.818 350.495 219.523 350.725 219.137 350.889C218.756 351.05 218.292 351.13 217.746 351.13ZM224.197 351.13C223.729 351.13 223.294 351.059 222.891 350.915C222.492 350.768 222.161 350.541 221.896 350.233C221.632 349.921 221.465 349.524 221.396 349.043H222.488C222.548 349.308 222.657 349.529 222.813 349.706C222.973 349.88 223.172 350.012 223.411 350.103C223.649 350.19 223.909 350.233 224.191 350.233C224.641 350.233 225.005 350.148 225.283 349.979C225.56 349.81 225.699 349.55 225.699 349.199C225.699 348.952 225.625 348.755 225.478 348.608C225.335 348.456 225.112 348.346 224.808 348.276L223.417 347.932C222.876 347.802 222.442 347.598 222.117 347.321C221.792 347.044 221.63 346.656 221.63 346.157C221.625 345.763 221.719 345.416 221.909 345.117C222.1 344.818 222.386 344.582 222.767 344.409C223.149 344.236 223.623 344.149 224.191 344.149C224.919 344.149 225.506 344.314 225.952 344.643C226.403 344.968 226.637 345.447 226.654 346.079H225.595C225.551 345.759 225.406 345.505 225.159 345.319C224.917 345.128 224.589 345.033 224.178 345.033C223.749 345.033 223.4 345.12 223.131 345.293C222.863 345.462 222.728 345.726 222.728 346.086C222.728 346.324 222.824 346.513 223.014 346.651C223.205 346.786 223.487 346.898 223.859 346.989L225.205 347.328C225.517 347.41 225.772 347.518 225.972 347.652C226.175 347.787 226.336 347.936 226.453 348.101C226.574 348.266 226.659 348.439 226.706 348.621C226.758 348.799 226.784 348.97 226.784 349.134C226.784 349.546 226.68 349.901 226.472 350.2C226.269 350.495 225.974 350.725 225.588 350.889C225.207 351.05 224.743 351.13 224.197 351.13ZM232.16 344.279V345.156H230.529V351H229.32V345.156H227.903V344.279H229.32V343.239C229.32 342.706 229.456 342.301 229.729 342.023C230.002 341.742 230.409 341.601 230.951 341.601H232.219L232.225 342.452H231.218C230.945 342.452 230.758 342.526 230.659 342.673C230.559 342.821 230.509 343.044 230.509 343.343V344.279H232.16ZM236.015 351.13C235.664 351.126 235.333 351.076 235.021 350.98C234.713 350.881 234.44 350.736 234.202 350.545C233.963 350.354 233.775 350.118 233.636 349.836C233.502 349.55 233.435 349.219 233.435 348.842V344.279H234.637V348.718C234.637 349.156 234.772 349.511 235.04 349.784C235.313 350.057 235.723 350.194 236.269 350.194C236.763 350.194 237.159 350.066 237.458 349.81C237.762 349.55 237.913 349.165 237.913 348.653V344.279H239.109V351H238.154L238.03 349.713C237.948 350.051 237.807 350.324 237.608 350.532C237.413 350.74 237.177 350.894 236.899 350.993C236.626 351.089 236.332 351.134 236.015 351.13ZM242.657 351.085C242.293 351.085 241.999 351.035 241.773 350.935C241.552 350.835 241.381 350.701 241.26 350.532C241.143 350.363 241.063 350.17 241.019 349.953C240.98 349.732 240.961 349.505 240.961 349.271V341.341H242.144V349.154C242.144 349.492 242.209 349.745 242.339 349.914C242.473 350.083 242.66 350.177 242.898 350.194L243.262 350.2V350.98C243.162 351.011 243.058 351.035 242.95 351.052C242.842 351.074 242.744 351.085 242.657 351.085ZM246.239 351.085C245.875 351.085 245.58 351.035 245.355 350.935C245.134 350.835 244.963 350.701 244.842 350.532C244.725 350.363 244.644 350.17 244.601 349.953C244.562 349.732 244.543 349.505 244.543 349.271V341.341H245.726V349.154C245.726 349.492 245.791 349.745 245.921 349.914C246.055 350.083 246.241 350.177 246.48 350.194L246.844 350.2V350.98C246.744 351.011 246.64 351.035 246.532 351.052C246.423 351.074 246.326 351.085 246.239 351.085ZM248.724 353.145C248.329 353.145 248.059 353.117 247.911 353.061C247.764 353.004 247.69 352.976 247.69 352.976V352.196L248.373 352.209C248.624 352.218 248.832 352.2 248.997 352.157C249.161 352.114 249.294 352.055 249.393 351.982C249.493 351.908 249.569 351.826 249.621 351.735C249.677 351.644 249.723 351.557 249.757 351.475L249.991 350.837L247.365 344.279H248.581L250.563 349.466L252.533 344.279H253.709L250.875 351.507C250.702 351.932 250.507 352.263 250.29 352.502C250.078 352.74 249.84 352.907 249.575 353.002C249.315 353.097 249.031 353.145 248.724 353.145Z" fill="#36536B"/>
<circle opacity="0.25" cx="183" cy="261" r="28" fill="#BA4270"/>
<path d="M174 262.696L178.577 267.273L191.85 254" stroke="#BA4270" stroke-width="3"/>
<rect x="119" y="373" width="131" height="30" rx="15" fill="#BA4270"/>
<path d="M165.568 384.047C165.609 384.047 165.72 384.047 165.904 384.047C166.091 384.047 166.309 384.047 166.558 384.047C166.811 384.047 167.062 384.049 167.312 384.052C167.565 384.052 167.776 384.054 167.944 384.058C168.909 384.08 169.695 384.252 170.304 384.575C170.912 384.898 171.358 385.349 171.64 385.928C171.926 386.507 172.069 387.193 172.069 387.985C172.069 388.81 171.919 389.523 171.618 390.124C171.318 390.722 170.857 391.184 170.238 391.51C169.622 391.837 168.839 392 167.889 392H165.568V384.047ZM167.185 385.345V390.702H167.922C168.377 390.702 168.789 390.614 169.16 390.438C169.534 390.262 169.833 389.974 170.056 389.574C170.28 389.175 170.392 388.641 170.392 387.974C170.392 387.354 170.293 386.852 170.095 386.467C169.897 386.078 169.614 385.794 169.248 385.614C168.881 385.435 168.447 385.345 167.944 385.345H167.185ZM174.814 386.313V392H173.28V386.313H174.814ZM174.831 384.052V385.499H173.269V384.052H174.831ZM178.434 392.11C178.038 392.11 177.657 392.046 177.29 391.917C176.924 391.785 176.614 391.58 176.361 391.301C176.108 391.019 175.946 390.654 175.877 390.207H177.268C177.316 390.409 177.402 390.568 177.527 390.685C177.655 390.803 177.8 390.887 177.961 390.938C178.123 390.986 178.277 391.01 178.423 391.01C178.731 391.01 178.979 390.962 179.166 390.867C179.356 390.768 179.452 390.618 179.452 390.416C179.452 390.262 179.395 390.139 179.281 390.047C179.171 389.956 178.988 389.886 178.731 389.838L177.73 389.629C177.228 389.523 176.825 389.343 176.52 389.09C176.216 388.834 176.06 388.471 176.053 388.001C176.053 387.66 176.143 387.354 176.322 387.083C176.506 386.812 176.775 386.597 177.131 386.439C177.486 386.282 177.923 386.203 178.44 386.203C179.14 386.203 179.699 386.357 180.117 386.665C180.539 386.973 180.753 387.407 180.761 387.968H179.419C179.378 387.748 179.268 387.58 179.089 387.462C178.913 387.341 178.691 387.281 178.423 387.281C178.145 387.281 177.915 387.33 177.736 387.429C177.556 387.528 177.466 387.679 177.466 387.88C177.466 388.031 177.54 388.15 177.686 388.238C177.833 388.322 178.06 388.396 178.368 388.458L179.292 388.667C179.611 388.744 179.87 388.85 180.068 388.986C180.269 389.118 180.425 389.263 180.535 389.42C180.645 389.578 180.72 389.738 180.761 389.899C180.805 390.057 180.827 390.2 180.827 390.328C180.827 390.706 180.726 391.028 180.524 391.296C180.323 391.56 180.042 391.762 179.683 391.901C179.323 392.04 178.907 392.11 178.434 392.11ZM181.869 392V386.313H183.442V387.116C183.614 386.867 183.845 386.652 184.135 386.473C184.428 386.293 184.796 386.203 185.24 386.203C185.434 386.203 185.632 386.238 185.834 386.307C186.036 386.377 186.225 386.48 186.401 386.615C186.58 386.747 186.725 386.914 186.835 387.116C187.018 386.856 187.259 386.639 187.556 386.467C187.856 386.291 188.19 386.203 188.557 386.203C188.769 386.203 188.984 386.238 189.2 386.307C189.42 386.377 189.622 386.491 189.805 386.648C189.988 386.806 190.135 387.017 190.245 387.281C190.359 387.541 190.416 387.864 190.416 388.249V392H188.81V388.447C188.81 388.22 188.764 388.038 188.672 387.902C188.584 387.763 188.47 387.664 188.331 387.605C188.195 387.543 188.051 387.512 187.897 387.512C187.754 387.512 187.609 387.541 187.462 387.6C187.315 387.655 187.191 387.745 187.088 387.869C186.985 387.994 186.934 388.157 186.934 388.359V392H185.334V388.304C185.334 388.132 185.288 387.987 185.196 387.869C185.104 387.752 184.989 387.664 184.85 387.605C184.714 387.543 184.575 387.512 184.432 387.512C184.285 387.512 184.138 387.543 183.992 387.605C183.845 387.664 183.722 387.758 183.623 387.886C183.524 388.011 183.475 388.168 183.475 388.359V392H181.869ZM193.252 386.313V392H191.717V386.313H193.252ZM193.268 384.052V385.499H191.706V384.052H193.268ZM196.872 392.11C196.476 392.11 196.094 392.046 195.728 391.917C195.361 391.785 195.051 391.58 194.798 391.301C194.545 391.019 194.384 390.654 194.314 390.207H195.706C195.753 390.409 195.84 390.568 195.964 390.685C196.093 390.803 196.237 390.887 196.399 390.938C196.56 390.986 196.714 391.01 196.861 391.01C197.169 391.01 197.416 390.962 197.603 390.867C197.794 390.768 197.889 390.618 197.889 390.416C197.889 390.262 197.832 390.139 197.719 390.047C197.609 389.956 197.425 389.886 197.169 389.838L196.168 389.629C195.665 389.523 195.262 389.343 194.958 389.09C194.653 388.834 194.498 388.471 194.49 388.001C194.49 387.66 194.58 387.354 194.76 387.083C194.943 386.812 195.213 386.597 195.568 386.439C195.924 386.282 196.36 386.203 196.877 386.203C197.578 386.203 198.137 386.357 198.555 386.665C198.976 386.973 199.191 387.407 199.198 387.968H197.856C197.816 387.748 197.706 387.58 197.526 387.462C197.35 387.341 197.128 387.281 196.861 387.281C196.582 387.281 196.353 387.33 196.173 387.429C195.994 387.528 195.904 387.679 195.904 387.88C195.904 388.031 195.977 388.15 196.124 388.238C196.27 388.322 196.498 388.396 196.806 388.458L197.73 388.667C198.049 388.744 198.307 388.85 198.505 388.986C198.707 389.118 198.863 389.263 198.973 389.42C199.083 389.578 199.158 389.738 199.198 389.899C199.242 390.057 199.264 390.2 199.264 390.328C199.264 390.706 199.163 391.028 198.962 391.296C198.76 391.56 198.48 391.762 198.12 391.901C197.761 392.04 197.345 392.11 196.872 392.11ZM202.491 392.11C202.095 392.11 201.714 392.046 201.347 391.917C200.981 391.785 200.671 391.58 200.418 391.301C200.165 391.019 200.003 390.654 199.934 390.207H201.325C201.373 390.409 201.459 390.568 201.584 390.685C201.712 390.803 201.857 390.887 202.018 390.938C202.18 390.986 202.334 391.01 202.48 391.01C202.788 391.01 203.036 390.962 203.223 390.867C203.413 390.768 203.509 390.618 203.509 390.416C203.509 390.262 203.452 390.139 203.338 390.047C203.228 389.956 203.045 389.886 202.788 389.838L201.787 389.629C201.285 389.523 200.882 389.343 200.577 389.09C200.273 388.834 200.117 388.471 200.11 388.001C200.11 387.66 200.2 387.354 200.379 387.083C200.563 386.812 200.832 386.597 201.188 386.439C201.543 386.282 201.98 386.203 202.497 386.203C203.197 386.203 203.756 386.357 204.174 386.665C204.596 386.973 204.81 387.407 204.818 387.968H203.476C203.435 387.748 203.325 387.58 203.146 387.462C202.97 387.341 202.748 387.281 202.48 387.281C202.202 387.281 201.972 387.33 201.793 387.429C201.613 387.528 201.523 387.679 201.523 387.88C201.523 388.031 201.597 388.15 201.743 388.238C201.89 388.322 202.117 388.396 202.425 388.458L203.349 388.667C203.668 388.744 203.927 388.85 204.125 388.986C204.326 389.118 204.482 389.263 204.592 389.42C204.702 389.578 204.777 389.738 204.818 389.899C204.862 390.057 204.884 390.2 204.884 390.328C204.884 390.706 204.783 391.028 204.581 391.296C204.38 391.56 204.099 391.762 203.74 391.901C203.38 392.04 202.964 392.11 202.491 392.11Z" fill="#FBFCFE"/>
<defs>
<filter id="filter0_d_0_4933" x="0.567871" y="0.569489" width="417.649" height="658.861" filterUnits="userSpaceOnUse" color-interpolation-filters="sRGB">
<feFlood flood-opacity="0" result="BackgroundImageFix"/>
<feColorMatrix in="SourceAlpha" type="matrix" values="0 0 0 0 0 0 0 0 0 0 0 0 0 0 0 0 0 0 127 0" result="hardAlpha"/>
<feOffset dx="25" dy="25"/>
<feGaussianBlur stdDeviation="40"/>
<feColorMatrix type="matrix" values="0 0 0 0 0.212302 0 0 0 0 0.32521 0 0 0 0 0.419299 0 0 0 0.300727 0"/>
<feBlend mode="normal" in2="BackgroundImageFix" result="effect1_dropShadow_0_4933"/>
<feBlend mode="normal" in="SourceGraphic" in2="effect1_dropShadow_0_4933" result="shape"/>
</filter>
<filter id="filter1_d_0_4933" x="91" y="192" width="206" height="221" filterUnits="userSpaceOnUse" color-interpolation-filters="sRGB">
<feFlood flood-opacity="0" result="BackgroundImageFix"/>
<feColorMatrix in="SourceAlpha" type="matrix" values="0 0 0 0 0 0 0 0 0 0 0 0 0 0 0 0 0 0 127 0" result="hardAlpha"/>
<feMorphology radius="10" operator="erode" in="SourceAlpha" result="effect1_dropShadow_0_4933"/>
<feOffset dx="10" dy="10"/>
<feGaussianBlur stdDeviation="12.5"/>
<feColorMatrix type="matrix" values="0 0 0 0 0.212302 0 0 0 0 0.32521 0 0 0 0 0.419299 0 0 0 0.25 0"/>
<feBlend mode="normal" in2="BackgroundImageFix" result="effect1_dropShadow_0_4933"/>
<feBlend mode="normal" in="SourceGraphic" in2="effect1_dropShadow_0_4933" result="shape"/>
</filter>
<linearGradient id="paint0_linear_0_4933" x1="63.0146" y1="55" x2="63.0146" y2="67.3239" gradientUnits="userSpaceOnUse">
<stop stop-color="#454545"/>
<stop offset="0.226279" stop-color="#999999"/>
<stop offset="1" stop-color="white"/>
</linearGradient>
<linearGradient id="paint1_linear_0_4933" x1="313.103" y1="140.747" x2="303.642" y2="140.747" gradientUnits="userSpaceOnUse">
<stop stop-color="white" stop-opacity="0.01"/>
<stop offset="0.222178" stop-color="#BABABA"/>
<stop offset="0.54678" stop-color="white" stop-opacity="0.01"/>
<stop offset="1" stop-color="white" stop-opacity="0.01"/>
</linearGradient>
<linearGradient id="paint2_linear_0_4933" x1="55.568" y1="140.487" x2="65.044" y2="140.487" gradientUnits="userSpaceOnUse">
<stop stop-color="white" stop-opacity="0.01"/>
<stop offset="0.222178" stop-color="#BABABA"/>
<stop offset="0.54678" stop-color="white" stop-opacity="0.01"/>
<stop offset="1" stop-color="white" stop-opacity="0.01"/>
</linearGradient>
</defs>
</svg>
